<?xml version="1.0" encoding="UTF-8" standalone="no"?>
<!-- Created with Inkscape (http://www.inkscape.org/) -->
<svg xmlns:dc="http://purl.org/dc/elements/1.1/" xmlns:cc="http://creativecommons.org/ns#" xmlns:rdf="http://www.w3.org/1999/02/22-rdf-syntax-ns#" xmlns:svg="http://www.w3.org/2000/svg" xmlns="http://www.w3.org/2000/svg" version="1.1" width="300" height="104.05882" id="svg2428">
  <defs id="defs2430"/>
  <metadata id="metadata2433">
    <rdf:RDF>
      <cc:Work rdf:about="">
        <dc:format>image/svg+xml</dc:format>
        <dc:type rdf:resource="http://purl.org/dc/dcmitype/StillImage"/>
        <dc:title/>
      </cc:Work>
    </rdf:RDF>
  </metadata>
  <g transform="translate(-270.84821,-363.77077)" id="layer1">
    <g transform="matrix(1.3071895,0,0,-1.3071895,365.96716,420.57469)" id="g258" style="fill:#000000">
      <path d="m 0,0 c 0,0 0.004,0.089 0,0.239 l 0,5.003 -5.686,0 c -0.02,0 -0.035,0.003 -0.053,0.003 l -23.437,0 0.872,-5.495 6.114,-2.516 c 2.517,-1.061 4.139,-2.128 4.139,-6.592 l 0.008,0.004 0,-11.111 c -2.596,-1.062 -6.133,-1.532 -10.497,-1.532 -7.429,0 -13.445,2.713 -18.043,8.016 -4.364,5.075 -6.485,11.087 -6.485,18.282 0,7.076 2.003,12.736 6.132,17.101 4.835,5.188 12.026,7.781 21.816,7.781 6.959,0 13.799,-1.768 20.757,-5.304 l 0.352,15.919 c -7.899,2.477 -15.802,3.657 -23.82,3.657 -13.326,0 -24.059,-3.895 -32.432,-11.676 -8.373,-7.666 -12.503,-17.219 -12.503,-28.657 0,-11.204 3.423,-20.521 10.382,-27.833 7.191,-7.663 16.981,-11.439 29.127,-11.439 12.146,0 23.233,2.595 33.257,7.901 L 0,0 z m 69.778,3.276 c 0,-13.304 -10.782,-24.09 -24.087,-24.084 -13.307,0 -24.088,10.78 -24.088,24.084 l 0,24.088 24.088,0.005 C 58.996,27.364 69.778,16.585 69.778,3.276 M 84.879,3.273 c 0,21.649 -17.545,39.188 -39.188,39.197 l -39.19,-0.01 0,-39.187 c 0,-21.645 17.544,-39.181 39.19,-39.181 21.643,-0.01 39.188,17.536 39.188,39.181 m 68.435,20.606 0.354,15.567 c -5.306,2.711 -12.147,4.009 -20.401,4.009 -13.326,0 -24.175,-4.009 -32.551,-11.913 -7.9,-7.547 -11.909,-17.099 -11.909,-28.54 0,-11.322 3.537,-20.517 10.495,-27.713 7.312,-7.663 17.219,-11.439 29.837,-11.439 9.552,0 18.75,2.713 27.595,8.256 l -4.835,12.383 c -6.488,-3.539 -12.974,-5.309 -19.576,-5.309 -7.193,0 -12.972,2.36 -17.336,7.196 -4.362,4.835 -6.486,10.73 -6.486,17.925 0,6.957 2.004,12.619 5.897,16.983 4.481,5.188 11.084,7.783 19.692,7.783 6.959,0 13.327,-1.77 19.224,-5.188" id="path260" style="fill:#000000;fill-opacity:1;fill-rule:nonzero;stroke:none"/>
    </g>
  </g>
</svg>